<svg xmlns="http://www.w3.org/2000/svg" viewBox="0 0 750 750"  xmlns:v="https://vecta.io/nano"><path d="M504.7 536.9c-4.9-9.2-5-9.1 4-14.3l29.7-17.2-45-33-46-33.8c-2.6-2-4.5-2.2-7.4-.5l-44.5 25.7c-2.6 1.5-3.5 3-3.1 6.2l10.9 95.9c.5 4.1.9 8.2 1.3 12.4.3 3 1.2 3.9 4.2 2.1l30.7-17.9c3.4-2.1 4.9-1.8 6.9 1.7 4.9 8.3 5.1 8.2-3.3 13.4l-62.6 39.3c-3.6 2.3-6.3 2.7-10.1.3l-67.7-41.9c-3.7-2.2-4.4-3.8-1.8-7.6 5.1-7.5 4.9-7.6 12.8-3.1l31 17.7 3.1-26.3 9-81.9c.7-6.1-.2-9.8-6.2-13-13.8-7.2-27.2-15.3-40.7-23.2-2.4-1.4-4-1.7-6.5.1l-89.7 65.9c-.4.3-.8.7-1.7 1.6l22.2 13.2 7.3 4.3c8.9 5.3 8.8 5.3 3.6 14.3-1.5 2.6-2.7 3.4-5.6 1.8L167 500c-2.3-1.2-3.3-2.5-3.2-5.2l2.3-82.5c.1-3.5 1.3-4.9 4.7-4.3h.6c9.7.2 9.7.2 9.7 9.8v31.1c0 3.2.8 3.9 3.8 2.6L285 407.4c2.6-1.1 3.1-2.7 3.1-5.1v-52.6c0-2.7-.9-3.9-3.3-5l-99.6-43.9c-4-1.8-4.3-.3-4.2 3.1l.2 33.9c.1 4-.5 5.9-5.3 6.1-11.4.5-9.5 1-9.8-9.2l-2.3-75.1c-.1-3.6.7-5.7 4.1-7.5l70.9-38.6c3.6-2 5-1.1 6.8 2.2 4.5 8.4 4.7 8.3-3.4 13l-30.4 17.6 32.5 24.1 57.3 42.2c2.9 2.1 4.9 2.2 7.9.4l43.6-25c3.3-1.8 4.4-3.8 4-7.6l-7.3-66.8-4.1-37.6c-.7-6.7-.7-6.8-6.7-3.4l-28.9 16.6c-3.3 2-4.9 1.8-6.9-1.7-4.8-8.3-5.1-8.2 3.1-13.3l64.7-40.3c2.7-1.7 4.6-1.9 7.5-.1l69 42.9c3.2 1.9 3.6 3.3 1.5 6.5-5.3 8.3-5.1 8.4-13.5 3.5l-26.3-15.3c-3.1-1.9-4.2-1.4-4.5 2.2l-4.7 44.3-6.4 57.8c-1.1 9.3-1.4 9.3 6.9 14.1l40 23.2c2.2 1.3 3.9 2.2 6.5.3l91-66.6c-2.8-3.2-6.6-4.4-9.8-6.4l-24.4-14.1c-3-1.7-3.4-3.1-1.8-6.1 4.7-9 4.6-9 13.5-4.2l66.7 35.6c3.3 1.7 4.5 3.6 4.3 7.4l-3 79.6c-.1 4.6-1.4 6.6-6.1 5.6-1.5-.3-3-.5-4.5-.4-3.3.2-4-1.4-4-4.4l.1-35.6c0-3.5-.7-4.3-4.1-2.8l-99.6 43.9c-2.5 1.1-3.2 2.6-3.1 5.1v52c0 2.6.8 3.9 3.3 5l99 43.7c4.4 2 4.5 0 4.5-3.4l-.1-33.4c-.1-4.5.9-6.3 5.8-6.2 8.4.3 8.5-.1 8.8 8.6l2.9 77.4c.1 3.1-.8 4.6-3.5 6.1l-72.6 38.9c-3 1.6-4.2 1.1-5.6-1.7zm15.8-387.3l-13.6 23.5L615.8 236v128.9H643V220.3l-122.5-70.7zM375 96.9l112.4 64.9 13.6-23.5-126-72.7-123.4 71.2 13.6 23.5L375 96.9zm-240.8 139l111.4-64.3-13.6-23.5-125 72.2v144.6h27.1v-129zm0 151.6H107v142.3l126 72.7 13.6-23.5-112.4-64.9V387.5zm481.6 126.6L506 577.5l13.6 23.5L643 529.7V387.5h-27.1v126.6zM375 653.1l-108.8-62.8-13.6 23.5L375 684.4l124.9-72.1-13.6-23.5L375 653.1z"/></svg>